<svg width="25" height="25" viewBox="0 0 25 25" fill="none" xmlns="http://www.w3.org/2000/svg">
<g clip-path="url(#clip0_641_686)">
<path d="M24.7186 20.4867C25.5198 21.8753 24.5142 23.6111 22.9141 23.6111H2.08569C0.482521 23.6111 -0.518434 21.8726 0.281132 20.4867L10.6955 2.42993C11.497 1.04065 13.5045 1.04317 14.3046 2.42993L24.7186 20.4867ZM12.5 16.7535C11.3974 16.7535 10.5035 17.6474 10.5035 18.75C10.5035 19.8527 11.3974 20.7466 12.5 20.7466C13.6027 20.7466 14.4965 19.8527 14.4965 18.75C14.4965 17.6474 13.6027 16.7535 12.5 16.7535ZM10.6045 9.57702L10.9264 15.4798C10.9415 15.756 11.1699 15.9722 11.4465 15.9722H13.5535C13.8301 15.9722 14.0585 15.756 14.0736 15.4798L14.3955 9.57702C14.4118 9.27867 14.1743 9.0278 13.8755 9.0278H11.1245C10.8257 9.0278 10.5882 9.27867 10.6045 9.57702Z" fill="#66023C"/>
</g>
<defs>
<clipPath id="clip0_641_686">
<rect width="25" height="25" fill="white"/>
</clipPath>
</defs>
</svg>
