<svg width="25" height="25" viewBox="0 0 25 25" fill="none" xmlns="http://www.w3.org/2000/svg">
<path d="M24.2676 13.33L16.0645 21.5331C15.332 22.2656 14.0625 21.7529 14.0625 20.7031V16.0156H7.42188C6.77246 16.0156 6.25 15.4931 6.25 14.8437V10.1562C6.25 9.50678 6.77246 8.98431 7.42188 8.98431H14.0625V4.29681C14.0625 3.25189 15.3271 2.73431 16.0645 3.46674L24.2676 11.6699C24.7217 12.1288 24.7217 12.871 24.2676 13.33ZM9.375 21.289V19.3359C9.375 19.0136 9.11133 18.7499 8.78906 18.7499H4.6875C3.82324 18.7499 3.125 18.0517 3.125 17.1874V7.81244C3.125 6.94818 3.82324 6.24994 4.6875 6.24994H8.78906C9.11133 6.24994 9.375 5.98627 9.375 5.664V3.71088C9.375 3.38861 9.11133 3.12494 8.78906 3.12494H4.6875C2.09961 3.12494 0 5.22455 0 7.81244V17.1874C0 19.7753 2.09961 21.8749 4.6875 21.8749H8.78906C9.11133 21.8749 9.375 21.6113 9.375 21.289Z" fill="#FF7700"/>
</svg>
