<svg width="25" height="21" viewBox="0 0 25 21" fill="none" xmlns="http://www.w3.org/2000/svg">
<path d="M24.4295 4.81331L21.7956 0.608766C21.5602 0.231331 21.1422 0 20.6958 0H4.29966C3.85324 0 3.43522 0.231331 3.19983 0.608766L0.565897 4.81331C-0.79368 6.98458 0.411677 10.0041 2.95226 10.349C3.13489 10.3734 3.32158 10.3856 3.50827 10.3856C4.70957 10.3856 5.77288 9.85795 6.5034 9.04221C7.23392 9.85795 8.30129 10.3856 9.49853 10.3856C10.6998 10.3856 11.7631 9.85795 12.4937 9.04221C13.2242 9.85795 14.2915 10.3856 15.4888 10.3856C16.6901 10.3856 17.7534 9.85795 18.4839 9.04221C19.2185 9.85795 20.2818 10.3856 21.479 10.3856C21.6698 10.3856 21.8524 10.3734 22.0351 10.349C24.5838 10.0081 25.7932 6.98864 24.4295 4.81331ZM21.4872 11.6883C21.0813 11.6883 20.6795 11.6274 20.2899 11.5341V15.5844H4.70551V11.5341C4.3159 11.6234 3.91411 11.6883 3.50827 11.6883C3.26476 11.6883 3.0172 11.6721 2.77775 11.6396C2.55048 11.6071 2.32726 11.5544 2.11216 11.4935V19.4805C2.11216 20.1989 2.69252 20.7792 3.41086 20.7792H21.5927C22.311 20.7792 22.8914 20.1989 22.8914 19.4805V11.4935C22.6722 11.5584 22.4531 11.6112 22.2258 11.6396C21.9782 11.6721 21.7347 11.6883 21.4872 11.6883Z" fill="#66023C"/>
</svg>
