<svg width="23" height="25" viewBox="0 0 23 25" fill="none" xmlns="http://www.w3.org/2000/svg">
<path d="M11.4949 12.5C15.1229 12.5 18.0634 9.70214 18.0634 6.25C18.0634 2.79785 15.1229 0 11.4949 0C7.8668 0 4.92637 2.79785 4.92637 6.25C4.92637 9.70214 7.8668 12.5 11.4949 12.5Z" fill="#66023C"/>
<path d="M11.4949 25L11.5 14.8486C10.4685 14.8486 9.47813 14.6777 8.55444 14.3701C8.1747 14.2432 7.78982 14.165 7.39469 14.1162V18.1006C7.39469 18.1006 7.39469 19.4726 7.39469 20.708C7.39469 22.2168 8.1593 22.4424 6.57363 22.4424C4.98795 22.4424 5.75256 22.2168 5.75256 20.708C5.75256 19.4726 5.75256 18.1006 5.75256 18.1006V14.1748C2.48884 14.6973 0 17.373 0 20.625V22.8125C0 24.0185 1.03146 25 2.29897 25H11.4949Z" fill="#66023C"/>
<path d="M11.4949 25L11.5 14.8486C12.5315 14.8486 13.5219 14.6777 14.4456 14.3701C14.8253 14.2432 15.2102 14.165 15.6053 14.1162V18.1006C15.6053 18.1006 15.6053 19.4727 15.6053 20.708C15.6053 22.2168 14.8407 22.4424 16.4264 22.4424C18.012 22.4424 17.2474 22.217 17.2474 20.708C17.2474 19.4727 17.2474 18.1006 17.2474 18.1006V14.1748C20.5112 14.6973 23 17.3731 23 20.625V22.8125C23 24.0186 21.9685 25 20.701 25L11.4949 25Z" fill="#66023C"/>
</svg>
